<?xml version="1.0" standalone="no"?>
<!DOCTYPE svg PUBLIC "-//W3C//DTD SVG 20010904//EN"
 "http://www.w3.org/TR/2001/REC-SVG-20010904/DTD/svg10.dtd">
<svg version="1.0" xmlns="http://www.w3.org/2000/svg"
 width="902.000000pt" height="381.000000pt" viewBox="0 0 902.000000 381.000000"
 preserveAspectRatio="xMidYMid meet">

<g transform="translate(0.000000,381.000000) scale(0.100000,-0.100000)"
fill="#000000" stroke="none">
<path d="M0 1905 l0 -1905 4510 0 4510 0 0 1905 0 1905 -4510 0 -4510 0 0
-1905z m8090 1165 l0 -110 -545 0 -545 0 0 -135 0 -135 75 0 75 0 0 -30 0 -30
-75 0 -75 0 0 -130 0 -130 -30 0 -30 0 0 295 0 295 -170 0 -170 0 0 -55 0 -55
120 0 120 0 0 -30 0 -30 -275 0 -275 0 0 30 0 30 120 0 120 0 0 55 0 55 -720
0 -720 0 0 -125 0 -125 75 0 75 0 0 -30 0 -30 -75 0 -75 0 0 -130 0 -130 -30
0 -30 0 0 285 0 285 -425 0 -425 0 0 -280 0 -280 -35 0 -35 0 0 130 0 130
-140 0 -140 0 0 25 0 25 140 0 140 0 0 125 0 125 -355 0 -355 0 0 -985 0 -985
180 0 180 0 0 90 0 90 -135 0 -135 0 0 240 0 240 345 0 345 0 0 -240 0 -240
-135 0 -135 0 0 -90 0 -90 185 0 185 0 0 -65 0 -65 -440 0 -440 0 0 -55 0 -55
-1590 0 -1590 0 0 1215 0 1215 3935 0 3935 0 0 -110z m-2000 -190 l0 -30 -150
0 c-165 0 -166 -1 -135 -59 31 -61 148 -130 256 -153 56 -11 57 -12 47 -40 -6
-15 -13 -28 -17 -28 -3 0 -39 9 -80 20 -100 28 -165 63 -221 119 l-48 48 -16
-28 c-32 -54 -181 -132 -292 -152 -26 -5 -33 -2 -43 19 -15 33 -16 31 27 39
116 21 229 85 267 150 14 23 25 47 25 53 0 9 -44 12 -155 12 l-155 0 0 30 0
30 345 0 345 0 0 -30z m-2190 -20 l0 -30 -185 0 -185 0 0 -160 0 -160 128 1
c70 0 165 6 212 13 47 7 85 13 86 12 1 -1 4 -13 8 -28 5 -23 2 -27 -22 -32
-77 -16 -211 -26 -339 -26 l-143 0 0 220 0 220 220 0 220 0 0 -30z m1000 -5
l0 -25 -110 0 -110 0 0 -43 c0 -101 77 -217 176 -266 27 -13 50 -25 52 -26 6
-5 -22 -55 -30 -55 -43 0 -186 117 -208 170 -16 38 -22 38 -39 -2 -29 -65
-144 -168 -203 -183 -20 -5 -29 -1 -42 16 -15 23 -15 24 40 53 70 38 147 121
168 182 9 26 16 72 16 101 l0 53 -110 0 -110 0 0 25 0 25 255 0 255 0 0 -25z
m3077 -197 c-3 -106 -11 -221 -17 -255 -12 -60 -14 -63 -40 -63 -16 0 -31 3
-33 8 -3 4 1 43 9 87 7 44 13 144 13 223 l1 142 -285 0 -285 0 0 25 0 25 321
0 322 0 -6 -192z m-1302 69 c48 -19 74 -41 95 -83 24 -45 25 -82 6 -128 -31
-74 -98 -108 -217 -107 -82 0 -142 23 -181 69 -68 82 -37 196 67 243 47 22
181 25 230 6z m855 -347 l0 -160 80 0 80 0 0 160 0 160 35 0 35 0 0 -160 0
-160 165 0 165 0 0 -30 0 -30 -420 0 -420 0 0 30 0 30 110 0 110 0 0 160 0
160 30 0 30 0 0 -160z m-1360 105 l0 -25 -195 0 -195 0 0 -54 0 -53 68 -6 c87
-7 144 -30 182 -73 25 -29 30 -43 30 -86 0 -45 -4 -54 -38 -88 -43 -44 -93
-61 -202 -69 -180 -14 -328 22 -370 91 -64 105 25 209 194 225 l66 6 0 53 0
54 -190 0 -190 0 0 25 0 25 420 0 420 0 0 -25z m-1173 -149 c24 -10 56 -34 73
-52 25 -30 30 -43 30 -89 0 -46 -5 -59 -30 -89 -17 -19 -50 -42 -74 -51 -94
-36 -316 -34 -399 3 -53 24 -87 61 -96 104 -19 89 36 160 146 188 64 16 301 6
350 -14z m-817 -151 l0 -165 -35 0 -35 0 0 140 0 140 -275 0 -275 0 0 25 0 25
310 0 310 0 0 -165z m2820 -15 l0 -150 -30 0 -30 0 0 120 0 120 -265 0 -265 0
0 30 0 30 295 0 295 0 0 -150z m-1880 -620 l0 -180 70 0 70 0 0 -65 0 -65 -70
0 -70 0 0 -245 0 -245 -75 0 -75 0 0 490 0 490 75 0 75 0 0 -180z m990 -75 l0
-245 -70 0 -70 0 0 245 0 245 70 0 70 0 0 -245z m976 198 c19 -107 111 -182
259 -214 33 -7 61 -13 63 -15 7 -4 -53 -114 -63 -114 -5 0 -38 7 -73 15 -82
19 -171 65 -222 114 l-42 39 -40 -40 c-57 -57 -223 -128 -298 -128 -8 0 -64
111 -58 115 2 1 30 7 62 14 84 18 138 44 186 87 50 46 70 82 70 129 l0 35 75
0 74 0 7 -37z m-1366 -10 c30 -16 68 -45 84 -66 27 -33 31 -48 34 -111 6 -110
-32 -172 -131 -216 -66 -29 -178 -29 -244 0 -99 44 -137 106 -131 216 3 63 7
78 34 111 16 21 54 50 84 66 45 23 66 27 135 27 69 0 90 -4 135 -27z m-1190
-133 l0 -120 95 0 95 0 0 120 0 120 70 0 70 0 0 -340 0 -340 -235 0 -235 0 0
340 0 340 70 0 70 0 0 -120z m2920 -300 l0 -60 -185 0 -185 0 0 -30 0 -30 140
0 140 0 0 -60 0 -60 -65 0 -65 0 0 -55 0 -55 70 0 70 0 0 -55 0 -55 -360 0
-360 0 0 55 0 55 70 0 70 0 0 55 0 55 -65 0 -65 0 0 60 0 60 135 0 135 0 0 30
0 30 -180 0 -180 0 0 60 0 60 440 0 440 0 0 -60z m-1340 -165 l0 -135 -250 0
-250 0 0 -25 0 -25 265 0 265 0 0 -60 0 -60 -335 0 -335 0 0 140 0 140 250 0
250 0 0 25 0 25 -250 0 -250 0 0 55 0 55 320 0 320 0 0 -135z"/>
<path d="M3630 1415 l0 -125 205 0 205 0 0 125 0 125 -205 0 -205 0 0 -125z"/>
<path d="M6491 2676 c-79 -28 -105 -109 -53 -166 82 -90 282 -47 282 60 0 92
-118 146 -229 106z"/>
<path d="M5633 2290 c-54 -11 -119 -45 -127 -65 -20 -52 15 -100 91 -126 50
-18 244 -18 302 -1 51 16 101 61 101 92 0 30 -49 76 -96 90 -51 15 -217 22
-271 10z"/>
<path d="M4691 2300 c-59 -13 -119 -53 -127 -87 -10 -39 13 -73 71 -102 44
-23 61 -26 160 -26 83 0 122 5 157 18 113 44 116 138 6 182 -51 20 -202 28
-267 15z"/>
<path d="M5499 1541 c-68 -68 -16 -171 86 -171 102 0 154 103 86 171 -26 25
-37 29 -86 29 -49 0 -60 -4 -86 -29z"/>
<path d="M4530 1195 l0 -105 95 0 95 0 0 105 0 105 -95 0 -95 0 0 -105z"/>
<path d="M6930 935 l0 -55 75 0 75 0 0 55 0 55 -75 0 -75 0 0 -55z"/>
</g>
</svg>
